<?xml version="1.0" encoding="UTF-8"?> <svg xmlns="http://www.w3.org/2000/svg" xmlns:xlink="http://www.w3.org/1999/xlink" version="1.1" id="Layer_1" x="0px" y="0px" viewBox="0 0 1969.1 509.2" style="enable-background:new 0 0 1969.1 509.2;" xml:space="preserve"> <style type="text/css"> .st0{fill:#006084;} </style> <path class="st0" d="M289,136.7l-186.6-34.4v304.5L289,372.5l186.6,34.4V102.4L289,136.7z M236.3,248.7h-22.1v50.1h-11.4v-50.1 h-22.1v-11.4h22.1v-22.6h11.4v22.6h22.1V248.7z M388.8,280.3c-2.1,0.4-1.4-1.1-1.7-2.9c-0.3-1.7,0-2.6,0.9-4.1c2-3.2,3.4-6.6,5-10 c1.5-3.1,3.2-6.5,5.5-9.2c1.4-1.5,2.6-2.7,4.4-1.2c1.1,0.9,3.7,2.4,4.5,3c-3,2-8.6,4.1-11.2,6.6s2.3,3.7,2.5,6.1 C399.2,274.8,394.3,279.3,388.8,280.3z M403.4,276.5c-2.7,0.9-2-1-1.3-3.1c0.5-1.7,0.6-4.7,2.9-3.6c1.1,0.5,3.9,1.2,4.2,2.9 C409.6,275,405,275.9,403.4,276.5z M445,242c-0.5,3.5-2,6.9-4.2,9.7c-4.5,6-10.7,11-17.1,14.8c-0.9,0.5-8.4,4.8-8.5,4.6 c-1-1.2-3.2-1.6-4.5-2.5c-1.7-1.1-2.4-1.6-4.6-3.8c0.6-0.2,6.5-1.9,8.3-2.4c3-0.8,7.2-1,9.5-3.1c2.1-1.9,1.5-4.8,0-7 c-1.9-2.6-8.5-3.8-10.1-6.6c2-0.1,6.8-0.9,8.7-1.1c2-0.3,4.1-0.2,6-0.7c1.9-0.4,3.7-1.3,5.6-1.9c1.6-0.5,4.4-1.9,6.1-1 c0.9,0.5,2.7,0.3,3.5-0.4C445.3,239.2,445.2,240.8,445,242z M444.9,237.6c-1.9-0.5-3.4,0.7-5.2,1.2c-1.9,0.5-3.9,0.3-5.9,0.3 c-4.9,0.2-9.7,1-14.6,1.2c-4.2,0.2-8.6-1.3-12.5,0.6c-2,0.9-2.8,1-3-1.1c-0.1-1.8-1-3.5-2.5-4.6c-3-2.2-5.5,0.5-6.6,3.3 c-0.8,2-0.5,4.7,1.2,5.8c2,1.2,0.7,2.7-0.8,4c-3.1,2.6-3.8,6.8-5,10.5c-1.5,4.3-3.5,8.8-4.2,13.3c-0.3,1.8-0.5,3.2-1.7,4.7 c-0.5,0.7-1,1.5-1.3,2.3c-0.2,0.5,0.1,1.9-0.3,2.2c-0.8,0.9-4.4,0.8-5.6,1c-2.1,0.3-4.3,0.5-6.4,0.7c-4.2,0.3-11.1,0.1-12.9,0.1 c-22.4-0.5,1.9,1.4,9.7,2.2c-14.5,2.1-28.7,3.6-43.4,3.5c-3.7,0-7.4,0-11.1,0c-0.6,0-2.9,0-3.2-0.6c-0.3-0.7,0.6-1.7,0.9-2.1 c4.9-5.3,9.7-10.7,14.7-15.8c18.6-19,41-35.8,66.2-44.8c8.6-3.1,17.5-5,26.6-5c8.1,0,17.1,1.5,23,7.6c1.4,1.4,2.5,3.1,3.2,5 C444.7,233.6,446.2,238,444.9,237.6z M616,202.1c22,0,35.8,12.2,35.8,31.5h-22.3c0-7.2-5.4-11.6-13.8-11.6 c-9.1,0-14.9,4.1-14.9,10.9c0,6.2,3.2,9.3,10.4,10.8l15.4,3.2c18.3,3.7,27,12.4,27,28.6c0,19.8-15.5,32.6-39,32.6 c-22.8,0-37.6-12.3-37.6-31.5h22.3c0,7.5,5.5,11.6,15.5,11.6c10.1,0,16.5-4,16.5-10.5c0-5.7-2.6-8.6-9.4-10l-15.6-3.2 c-18.3-3.7-27.7-14.1-27.7-30.9C578.3,215.2,594,202.1,616,202.1z M688.4,204h22.4v62.4c0,12.9,7,19.9,19.6,19.9 c12.7,0,19.9-7.3,19.9-19.9V204h22.4v63.9c0,24.3-16.6,40.1-42.3,40.1c-25.6,0-42-15.6-42-40.1L688.4,204L688.4,204z M814.1,306.4 V204h39.6c24.9,0,39,12,39,33.2c0,13.3-5.7,22.7-17,28.5l18,40.7h-24.5l-15.4-35.8h-17.3v35.8L814.1,306.4L814.1,306.4z M836.5,250.9h17c9.8,0,15.5-5,15.5-13.7c0-8.6-5.4-13.3-15.4-13.3h-17.2v27H836.5z M952.5,266.4v40h-22.4V204h65.2v20.7h-42.7v21.4 h36v20.2h-36.1V266.4z M1031.4,306.4V204h65v20.7h-42.6v20.1h37.8v19.6h-37.8v21.2h42.6v20.7L1031.4,306.4L1031.4,306.4z M1135.6,306.4V204h39.6c24.9,0,39,12,39,33.2c0,13.3-5.7,22.7-17,28.5l18,40.7h-24.5l-15.4-35.8H1158v35.8L1135.6,306.4 L1135.6,306.4z M1158,250.9h17c9.8,0,15.5-5,15.5-13.7c0-8.6-5.4-13.3-15.4-13.3H1158V250.9z M1283.5,202.1 c22,0,35.8,12.2,35.8,31.5H1297c0-7.2-5.4-11.6-13.8-11.6c-9.1,0-14.9,4.1-14.9,10.9c0,6.2,3.2,9.3,10.4,10.8l15.4,3.2 c18.3,3.7,27,12.4,27,28.6c0,19.8-15.5,32.6-39,32.6c-22.8,0-37.6-12.3-37.6-31.5h22.3c0,7.5,5.5,11.6,15.5,11.6 c10.1,0,16.5-4,16.5-10.5c0-5.7-2.6-8.6-9.4-10l-15.6-3.2c-18.3-3.7-27.7-14.1-27.7-30.9C1245.9,215.2,1261.5,202.1,1283.5,202.1z M1414,204h42.6c20.6,0,33.1,10.8,33.1,28.4c0,10.9-5,18.9-14.3,23c10.1,3.3,15.5,11.2,15.5,22.8c0,18.1-12.2,28.2-34.3,28.2H1414 V204z M1436.4,223.7V246h17.8c8,0,12.4-4,12.4-11.3c0-7.2-4.3-10.9-12.4-10.9h-17.8V223.7z M1436.4,264.7v22h18.9 c8.3,0,12.6-3.7,12.6-11.3c0-6.9-4.4-10.6-12.6-10.6h-18.9V264.7z M1549.2,306.4h-22.4V204h22.4V306.4z M1591.2,204h42.6 c20.6,0,33.1,10.8,33.1,28.4c0,10.9-5,18.9-14.3,23c10.1,3.3,15.5,11.2,15.5,22.8c0,18.1-12.2,28.2-34.3,28.2h-42.6L1591.2,204 L1591.2,204z M1613.6,223.7V246h17.8c8,0,12.4-4,12.4-11.3c0-7.2-4.3-10.9-12.4-10.9h-17.8V223.7z M1613.6,264.7v22h18.9 c8.3,0,12.6-3.7,12.6-11.3c0-6.9-4.4-10.6-12.6-10.6h-18.9V264.7z M1726.4,285.6h40.4v20.7H1704V204h22.4V285.6z M1801.7,306.4V204 h65v20.7h-42.6v20.1h37.8v19.6h-37.8v21.2h42.6v20.7L1801.7,306.4L1801.7,306.4z"></path> <g> <path class="st0" d="M1074,388.8c0-14.4,9.2-23.9,22.9-23.9c11.6,0,19.8,6.6,21.3,17h-10.7c-1.3-4.6-5.3-7.2-10.9-7.2 c-7.5,0-12,5.3-12,14.1c0,8.7,4.6,14.1,12,14.1c5.7,0,9.9-2.8,11.1-7.4h10.5c-1.6,10.3-10.2,17.1-21.8,17.1 C1082.7,412.6,1074,403.4,1074,388.8z M1134.4,411.8v-46.2h10.1v18.2h17.8v-18.2h10.1v46.2h-10.1v-18.5h-17.8v18.6L1134.4,411.8 L1134.4,411.8z M1191.4,411.8v-46.2h17.8c11.2,0,17.6,5.5,17.6,15c0,6-2.6,10.2-7.7,12.9l8.1,18.4h-11l-6.9-16.2h-7.8v16.2H1191.4z M1201.5,386.8h7.7c4.5,0,7-2.2,7-6.2c0-3.9-2.4-6-6.9-6h-7.7V386.8z M1253.9,411.8h-10.2v-46.2h10.1L1253.9,411.8L1253.9,411.8z M1287.2,364.8c9.9,0,16.2,5.5,16.2,14.3h-10c0-3.2-2.4-5.2-6.2-5.2c-4.1,0-6.7,1.9-6.7,4.9c0,2.8,1.4,4.2,4.7,4.9l6.9,1.4 c8.2,1.7,12.1,5.6,12.1,12.9c0,8.9-7,14.7-17.6,14.7c-10.3,0-17-5.6-17-14.3h10c0,3.3,2.5,5.2,7,5.2c4.6,0,7.5-1.8,7.5-4.8 c0-2.6-1.2-3.9-4.2-4.5l-7-1.4c-8.2-1.7-12.5-6.4-12.5-13.9C1270.2,370.7,1277.3,364.8,1287.2,364.8z M1316,365.6h36.3v9.4h-13.1 v36.9h-10.1V375h-13.1L1316,365.6L1316,365.6z M1377.8,411.8h-10.1v-46.2h10.1V411.8z M1392.5,411.8l16.5-46.2h9.9l16.4,46.2h-10.7 l-3.2-9.7h-14.9l-3.3,9.7H1392.5z M1409.4,393.6h9.1l-3.3-9.9c-0.5-1.6-1.1-3.3-1.2-4.5c-0.2,1.1-0.7,2.8-1.2,4.5L1409.4,393.6z M1450,411.8v-46.2h10l19.5,29.4v-29.4h10v46.2h-10l-19.5-29.3v29.3H1450L1450,411.8z M1548.7,364.8c9.9,0,16.2,5.5,16.2,14.3h-10 c0-3.2-2.4-5.2-6.2-5.2c-4.1,0-6.7,1.9-6.7,4.9c0,2.8,1.4,4.2,4.7,4.9l6.9,1.4c8.2,1.7,12.1,5.6,12.1,12.9c0,8.9-7,14.7-17.6,14.7 c-10.3,0-17-5.6-17-14.3h10c0,3.3,2.5,5.2,7,5.2c4.6,0,7.5-1.8,7.5-4.8c0-2.6-1.2-3.9-4.2-4.5l-7-1.4c-8.2-1.7-12.5-6.4-12.5-13.9 C1531.8,370.7,1538.8,364.8,1548.7,364.8z M1581.3,365.6h10.1v28.2c0,5.8,3.2,9,8.9,9c5.8,0,9-3.3,9-9v-28.2h10.1v28.8 c0,11-7.5,18.1-19.1,18.1c-11.6,0-19-7-19-18.1L1581.3,365.6L1581.3,365.6z M1638.1,411.8v-46.2h17.8c11.2,0,17.6,5.5,17.6,15 c0,6-2.6,10.2-7.7,12.9l8.1,18.4h-11l-6.9-16.2h-7.8v16.2H1638.1z M1648.2,386.8h7.7c4.5,0,7-2.2,7-6.2c0-3.9-2.4-6-6.9-6h-7.7 V386.8z M1700.5,393.8v18h-10.1v-46.2h29.4v9.4h-19.3v9.7h16.3v9.1H1700.5z M1736,411.8v-46.2h29.3v9.4h-19.2v9h17v8.9h-17v9.6 h19.2v9.4L1736,411.8L1736,411.8z M1783,411.8v-46.2h17.8c11.2,0,17.6,5.5,17.6,15c0,6-2.6,10.2-7.7,12.9l8.1,18.4h-11l-6.9-16.2 h-7.8v16.2H1783z M1793.2,386.8h7.7c4.5,0,7-2.2,7-6.2c0-3.9-2.4-6-6.9-6h-7.7V386.8z M1849.7,364.8c9.9,0,16.2,5.5,16.2,14.3h-10 c0-3.2-2.4-5.2-6.2-5.2c-4.1,0-6.7,1.9-6.7,4.9c0,2.8,1.4,4.2,4.7,4.9l6.9,1.4c8.2,1.7,12.1,5.6,12.1,12.9c0,8.9-7,14.7-17.6,14.7 c-10.3,0-17-5.6-17-14.3h10c0,3.3,2.5,5.2,7,5.2c4.6,0,7.5-1.8,7.5-4.8c0-2.6-1.2-3.9-4.2-4.5l-7-1.4c-8.2-1.7-12.5-6.4-12.5-13.9 C1832.8,370.7,1839.8,364.8,1849.7,364.8z M972.7,412.6c1.9-0.2,3.9-0.4,5.9-0.6c1.1-0.2,4.4-0.1,5.2-0.9c0.4-0.4,0.1-1.6,0.3-2.1 c0.2-0.8,0.7-1.5,1.2-2.1c1.1-1.3,1.3-2.6,1.5-4.3c0.6-4.1,2.5-8.3,3.8-12.2c1.2-3.4,1.8-7.2,4.6-9.6c1.4-1.2,2.5-2.5,0.7-3.6 c-1.6-1-2.3-3.8-1.6-5.6c1-2.5,3.8-4.6,6.5-2.6c1.3,1,2.1,2.6,2.3,4.2c0.2,1.9,0.9,1.9,2.7,1.1c3.6-1.6,7.7-0.4,11.5-0.5 c4.5-0.2,8.9-0.9,13.4-1.1c1.8-0.1,3.6,0.2,5.4-0.3c1.6-0.4,3-1.5,4.8-1.1c1.1,0.4-0.2-3.7-0.4-4.2c-0.7-1.7-1.7-3.2-3-4.6 c-5.4-5.6-13.6-6.9-21.1-7c-8.4-0.1-16.5,1.8-24.4,4.6c-23.1,8.2-43.7,23.6-60.7,41c-4.6,4.7-9,9.6-13.5,14.5 c-0.4,0.4-1.2,1.3-0.9,1.9c0.2,0.5,2.4,0.5,2.9,0.5c3.4,0,6.8,0,10.2,0c13.4,0.1,26.5-1.3,39.7-3.2c-7.1-0.8-29.3-2.5-8.9-2 C962.5,412.7,968.9,412.9,972.7,412.6z M1009.5,399.5c1.2,0.8,3.2,1.1,4.2,2.3c0.2,0.2,7-3.8,7.8-4.2c5.9-3.5,11.5-8,15.7-13.6 c1.9-2.6,3.3-5.6,3.8-8.9c0.2-1.1,0.2-2.6-1.2-1.3c-0.7,0.6-2.3,0.8-3.2,0.4c-1.5-0.8-4,0.5-5.6,0.9c-1.8,0.5-3.4,1.3-5.2,1.8 c-1.8,0.4-3.7,0.3-5.5,0.6c-1.8,0.2-6.2,1-8,1.1c1.5,2.6,7.5,3.6,9.2,6c1.5,2.1,2,4.7,0.1,6.4c-2.1,1.9-5.9,2-8.7,2.8 c-1.6,0.5-7,2.1-7.6,2.2C1007.2,398,1007.9,398.5,1009.5,399.5L1009.5,399.5z M1002.3,385.2c-1.7-1.4-2.8-0.3-4,1.1 c-2.2,2.4-3.6,5.5-5,8.4c-1.5,3.1-2.8,6.2-4.6,9.1c-0.8,1.3-1.1,2.2-0.8,3.8c0.3,1.6-0.4,3.1,1.5,2.6c5-1,9.5-5,9.2-10.6 c-0.2-2.2-4.6-3.3-2.3-5.6c2.3-2.3,7.5-4.2,10.2-6C1005.7,387.4,1003.3,386,1002.3,385.2z M1004.2,400.5c-2.1-0.9-2.2,1.8-2.7,3.3 c-0.6,1.9-1.2,3.7,1.2,2.9c1.5-0.5,5.7-1.3,5.3-3.5C1007.8,401.7,1005.2,401,1004.2,400.5z"></path> </g> <g> <path class="st0" d="M577.6,404.2l11.3-30.8h3.8l11.5,30.8H601l-3-8.2h-14.2l-3,8.2H577.6z M584.7,393.3H597l-5.8-15.6 c-0.1-0.4-0.3-0.9-0.4-1.2c0,0.3-0.2,0.8-0.4,1.2L584.7,393.3z"></path> <path class="st0" d="M627.9,392.8v11.3h-3.1v-30.8h11.8c5.9,0,9.7,3.9,9.7,9.7c0,5.6-3.8,9.8-9.7,9.8H627.9z M627.9,376.1V390h8.1 c4.5,0,7.1-2.8,7.1-7.1c0-4.3-2.6-6.8-6.9-6.8H627.9z"></path> <path class="st0" d="M653.3,404.2v-30.8h11.5c6.2,0,10,3.4,10,8.9c0,4.4-2.3,7.5-6.3,8.6l6.6,13.3h-3.4l-6.3-12.8h-9v12.8H653.3z M656.4,388.6h8.5c4.3,0,6.8-2.3,6.8-6.2c0-4-2.6-6.2-6.8-6.2h-8.4V388.6z"></path> <path class="st0" d="M695.6,404.7c-8.7,0-14.7-6.6-14.7-15.9c0-9.3,6.1-16,14.7-16c8.7,0,14.7,6.6,14.7,16 C710.3,398.1,704.3,404.7,695.6,404.7z M695.6,375.8c-6.8,0-11.5,5.3-11.5,13c0,7.7,4.6,13,11.5,13c6.8,0,11.5-5.3,11.5-13 C707.1,381,702.5,375.8,695.6,375.8z"></path> <path class="st0" d="M715.2,394.5h3v1.2c0,3.7,2,6.1,5.7,6.1c3.9,0,5.7-2.5,5.7-6.1v-22.3h3.1v22.4c0,5.6-3.6,9-8.8,9 c-5.6,0-8.7-3.7-8.7-9V394.5z"></path> <path class="st0" d="M742.2,404.2v-30.8h18.4v2.8h-15.3v11.1h13.9v2.8h-13.9v11.2h15.4v2.8H742.2z"></path> <path class="st0" d="M767.2,388.8c0-9.5,5.9-15.9,14.6-15.9c6.6,0,11.8,4,13.1,10.1h-3.3c-1.3-4.4-5.1-7.1-9.9-7.1 c-6.8,0-11.3,5.2-11.3,13c0,7.7,4.5,12.9,11.3,12.9c4.9,0,8.7-2.6,10.1-6.8h3.3c-1.4,5.8-6.8,9.7-13.4,9.7 C773.1,404.6,767.2,398.2,767.2,388.8z"></path> <path class="st0" d="M797.7,373.3h22.1v2.8h-9.5v28h-3.1v-28h-9.5V373.3z"></path> <path class="st0" d="M853.1,404.7c-8.7,0-14.7-6.6-14.7-15.9c0-9.3,6.1-16,14.7-16c8.7,0,14.7,6.6,14.7,16 C867.7,398.1,861.7,404.7,853.1,404.7z M853.1,375.8c-6.8,0-11.5,5.3-11.5,13c0,7.7,4.6,13,11.5,13s11.5-5.3,11.5-13 C864.6,381,859.9,375.8,853.1,375.8z"></path> <path class="st0" d="M878.6,390.6v13.6h-3.1v-30.8h18.2v2.8h-15.1v11.6h12.6v2.8H878.6z"></path> </g> </svg> 